<svg xmlns="http://www.w3.org/2000/svg" viewBox="0 0 280 60" fill="none">
  <!-- Logo A: 葉子圓形圖標 + 文字 -->
  <!-- 圓形背景 -->
  <circle cx="30" cy="30" r="28" fill="#1a7f5a"/>
  <!-- 葉子圖形 -->
  <path d="M30 12 C18 20, 14 36, 30 48 C46 36, 42 20, 30 12Z" fill="#ffffff" opacity="0.9"/>
  <path d="M30 18 C30 18, 30 48, 30 48" stroke="#1a7f5a" stroke-width="2" stroke-linecap="round"/>
  <path d="M24 28 C24 28, 30 24, 30 24" stroke="#1a7f5a" stroke-width="1.5" stroke-linecap="round"/>
  <path d="M24 34 C24 34, 30 30, 30 30" stroke="#1a7f5a" stroke-width="1.5" stroke-linecap="round"/>
  <path d="M36 26 C36 26, 30 22, 30 22" stroke="#1a7f5a" stroke-width="1.5" stroke-linecap="round"/>
  <path d="M36 32 C36 32, 30 28, 30 28" stroke="#1a7f5a" stroke-width="1.5" stroke-linecap="round"/>
  <!-- 昕禾 文字 -->
  <text x="70" y="38" font-family="Noto Sans TC, Microsoft JhengHei, sans-serif" font-size="32" font-weight="700" fill="#2c3e50">昕禾</text>
  <!-- 生活 文字 -->
  <text x="138" y="38" font-family="Noto Sans TC, Microsoft JhengHei, sans-serif" font-size="32" font-weight="400" fill="#1a7f5a">生活</text>
</svg>
