<svg xmlns="http://www.w3.org/2000/svg" viewBox="0 0 280 64" fill="none">
  <!-- Logo C: 水滴+葉子融合 + 優雅排版 -->
  <!-- 水滴外框 -->
  <path d="M28 6 C28 6, 6 30, 6 40 C6 52, 16 58, 28 58 C40 58, 50 52, 50 40 C50 30, 28 6, 28 6Z" fill="#e8f5e9" stroke="#1a7f5a" stroke-width="2.5"/>
  <!-- 內部葉子 -->
  <path d="M28 20 C20 28, 18 38, 28 46 C38 38, 36 28, 28 20Z" fill="#1a7f5a"/>
  <path d="M28 24 L28 43" stroke="#e8f5e9" stroke-width="1.5" stroke-linecap="round"/>
  <path d="M24 32 L28 28" stroke="#e8f5e9" stroke-width="1.2" stroke-linecap="round"/>
  <path d="M32 32 L28 28" stroke="#e8f5e9" stroke-width="1.2" stroke-linecap="round"/>
  <path d="M24 37 L28 33" stroke="#e8f5e9" stroke-width="1.2" stroke-linecap="round"/>
  <path d="M32 37 L28 33" stroke="#e8f5e9" stroke-width="1.2" stroke-linecap="round"/>
  <!-- 昕禾生活 一行 -->
  <text x="62" y="30" font-family="Noto Sans TC, Microsoft JhengHei, sans-serif" font-size="28" font-weight="700" fill="#2c3e50" letter-spacing="2">昕禾生活</text>
  <!-- 英文副標 -->
  <text x="62" y="50" font-family="Arial, sans-serif" font-size="12" font-weight="500" fill="#1a7f5a" letter-spacing="3">XINHE LIVING</text>
</svg>
